<svg width="14" height="14" viewBox="0 0 14 14" fill="none" xmlns="http://www.w3.org/2000/svg">
<path d="M8.22461 0.75C9.34523 0.75 10.2549 1.66489 10.2549 2.78027C10.2549 2.92778 10.2366 3.06673 10.2061 3.2002H12.8545C12.963 3.2002 13.0615 3.25002 13.1309 3.31934C13.2001 3.38857 13.2499 3.48638 13.25 3.59473V7.00977C13.2499 7.16277 13.1511 7.3066 13.0127 7.36914C12.8709 7.43297 12.7019 7.40548 12.5879 7.2998C12.37 7.1038 12.0811 6.99023 11.7646 6.99023C11.0768 6.9904 10.5305 7.53675 10.5303 8.22461C10.5303 8.91266 11.0766 9.4598 11.7646 9.45996C12.0801 9.45996 12.369 9.34153 12.5879 9.14453C12.6881 9.05194 12.8337 9.01979 12.9629 9.05566L13.0176 9.0752L13.0684 9.10352C13.1815 9.17704 13.25 9.30661 13.25 9.44043V12.8545C13.25 12.963 13.2002 13.0615 13.1309 13.1309C13.0615 13.2002 12.963 13.25 12.8545 13.25H3.59473C3.48638 13.2499 3.38857 13.2001 3.31934 13.1309C3.25002 13.0615 3.2002 12.963 3.2002 12.8545V10.2051C3.06666 10.2357 2.92786 10.2549 2.78027 10.2549C1.66489 10.2549 0.75 9.34523 0.75 8.22461C0.750212 7.10417 1.66502 6.19531 2.78027 6.19531C2.9278 6.19533 3.06671 6.21354 3.2002 6.24414V3.59473C3.2003 3.48633 3.25009 3.38858 3.31934 3.31934C3.38858 3.25009 3.48633 3.2003 3.59473 3.2002H6.24414C6.21354 3.06671 6.19533 2.9278 6.19531 2.78027C6.19531 1.66502 7.10417 0.750212 8.22461 0.75ZM8.22461 1.54492C7.53693 1.54513 6.99023 2.09679 6.99023 2.78027C6.99027 2.95196 7.02249 3.10929 7.08398 3.25195L7.15527 3.39062L7.15625 3.3916C7.23287 3.52186 7.20993 3.67439 7.14746 3.78516C7.0847 3.89619 6.96476 3.99512 6.81152 3.99512H3.99512V6.81152C3.99512 6.96234 3.89805 7.08096 3.78906 7.14355C3.68008 7.20606 3.52961 7.22986 3.39941 7.15723L3.39648 7.15527C3.21386 7.04657 3.00907 6.99028 2.78027 6.99023C2.09679 6.99023 1.54513 7.53693 1.54492 8.22461C1.54492 8.91247 2.09666 9.45996 2.78027 9.45996C3.00737 9.45992 3.21238 9.39865 3.39648 9.28906L3.39941 9.28809C3.52963 9.21541 3.67976 9.23931 3.78906 9.30273C3.89875 9.36645 3.99495 9.48575 3.99512 9.6377V12.4551H12.4551V10.1123C12.2425 10.1966 12.0128 10.2549 11.7646 10.2549C10.6444 10.2547 9.73535 9.34492 9.73535 8.22461C9.73556 7.10448 10.6445 6.19548 11.7646 6.19531C12.012 6.19531 12.2418 6.24886 12.4551 6.33203V3.99512H9.6377C9.48464 3.99495 9.36544 3.8961 9.30273 3.78516C9.24023 3.67438 9.2173 3.52189 9.29395 3.3916L9.29492 3.38965C9.40271 3.21275 9.45992 3.00919 9.45996 2.78027C9.45996 2.09666 8.91247 1.54492 8.22461 1.54492Z" fill="white" stroke="white" stroke-width="0.25"/>
</svg>
